<svg width="64" height="64" xmlns="http://www.w3.org/2000/svg">

 <g>
  <title>Layer 1</title>
  <path id="svg_6" d="m13.01797,31.884c0.56226,5.99743 5.24775,20.80357 17.99228,21.17841c12.74453,0.37484 18.1797,-13.11937 18.74196,-21.55325" opacity="NaN" fill="#000000"/>
  <ellipse ry="3.8421" rx="18.65604" id="svg_8" cy="32.16513" cx="31.65843" fill="#000000"/>
  <ellipse ry="2.77696" rx="13.68163" id="svg_5" cy="32.78677" cx="31.01025" fill="#ffffff"/>
  <path id="svg_7" d="m49.6366,31.50127c4.31065,-0.18742 7.30936,10.4955 -4.68549,12.93195c-11.99485,2.43645 -3.56097,-2.81129 0.9371,-3.74839c4.49807,-0.9371 7.12194,-6.37227 2.99871,-6.7471" opacity="NaN" fill="#000000"/>
  <path id="svg_9" d="m26.88702,27.38593c-3.37355,-5.06033 -5.24775,-4.87291 -1.49936,-10.4955c3.74839,-5.62259 3.18613,-6.55969 0.9371,-9.93324c3.74839,1.68678 6.55969,5.43517 4.31065,10.30808c-2.24903,4.87291 -2.99871,5.06033 -0.9371,9.93324" opacity="NaN" fill="#000000"/>
 </g>
</svg>