<svg width="64" height="64" xmlns="http://www.w3.org/2000/svg" xml:space="preserve" version="1.1">

 <g>
  <title>Layer 1</title>
  <g stroke="null">

   <title stroke="null">map</title>
   <path stroke="null" fill-rule="evenodd" d="m34.05554,38.07349a0.8409,0.8409 0 0 1 -0.96547,0.03116a33.86968,33.86968 0 0 1 -8.37788,-7.4747a26.62339,26.62339 0 0 1 -5.63717,-12.16193c-0.6696,-4.14742 -0.03114,-8.13391 2.04516,-11.37814a14.01504,14.01504 0 0 1 3.11445,-3.45705a15.17258,15.17258 0 0 1 9.53023,-3.52452a13.49597,13.49597 0 0 1 9.06306,3.69582a13.49597,13.49597 0 0 1 2.4189,2.94835c2.21645,3.63352 2.69399,8.30521 1.71813,13.03918a28.69969,28.69969 0 0 1 -12.9094,18.28184zm-9.86243,0.38412l0,14.44069l15.65012,6.74799l0,-18.59848a33.82816,33.82816 0 0 0 3.34803,-2.92241l0,21.37555l12.97689,-6.53517l0,-29.06823l-4.9883,1.92058a31.98024,31.98024 0 0 0 1.2354,-4.05399l4.82741,-1.86348a1.67142,1.67142 0 0 1 2.13339,0.97067a1.65066,1.65066 0 0 1 0.1142,0.60213l0,32.54605a1.67661,1.67661 0 0 1 -1.03815,1.55721l-16.19515,8.13393a1.67661,1.67661 0 0 1 -1.5157,0l-18.16764,-7.87438l-15.63456,7.87438a1.67142,1.67142 0 0 1 -2.2476,-0.73708a1.70257,1.70257 0 0 1 -0.18167,-0.75266l0,-34.477a1.67661,1.67661 0 0 1 1.20426,-1.60913l8.50246,-3.28056a30.4334,30.4334 0 0 0 1.1212,3.15079l-7.47469,2.88088l0,30.62546l12.97689,-6.53518l0,-18.04306a39.59509,39.59509 0 0 0 3.35323,3.52453zm8.94367,-30.97324a7.12172,7.12172 0 1 1 -7.12171,7.12172a7.12172,7.12172 0 0 1 7.12171,-7.12172z" class="cls-1"/>
  </g>
 </g>
</svg>