<svg width="24" height="24" xmlns="http://www.w3.org/2000/svg" xml:space="preserve" version="1.1">

 <g>
  <title>Layer 1</title>
  <g stroke="null" stroke-opacity="0">
   <g stroke="null">
    <path stroke="#000000" fill="#ffffff" clip-rule="evenodd" fill-rule="evenodd" d="m1.1173,10.39085l5.18542,0c0.41885,0 0.76189,0.34337 0.76189,0.76453l0,10.15126c0,0.41925 -0.34304,0.76452 -0.76189,0.76452l-5.18542,0c-0.41885,0 -0.76189,-0.34337 -0.76189,-0.76452l0,-10.15126c0,-0.42115 0.34304,-0.76453 0.76189,-0.76453l0,0zm11.1896,-7.61486c0.40179,-2.03936 3.73744,-0.16125 3.95729,3.12638c0.06634,1.00545 -0.0379,2.17595 -0.28428,3.48303l4.76657,0c1.98244,0.07778 3.71281,1.4987 2.49037,3.8321c0.2786,1.01683 0.3203,2.2101 -0.43591,2.68057c0.09476,1.60493 -0.34872,2.599 -1.17885,3.38438c-0.05496,0.80247 -0.22554,1.51577 -0.61217,2.06402c-0.64059,0.90491 -1.15989,0.68864 -2.16817,0.68864l-8.04916,0c-1.27551,0 -1.97107,-0.35096 -2.80498,-1.39814l0,-8.97317c2.39939,-0.6488 3.6749,-3.93454 4.31929,-6.09151l0,-2.79629l0,0z" class="st0"/>
   </g>
  </g>
 </g>
</svg>