<svg width="24" height="24" xmlns="http://www.w3.org/2000/svg" xml:space="preserve" version="1.1">

 <g>
  <title>Layer 1</title>
  <g stroke="null" transform="rotate(180 12 12)" id="svg_1">
   <path fill="#ffffff" id="svg_2" clip-rule="evenodd" fill-rule="evenodd" d="m1.00414,13.62365l5.24025,0c0.42328,0 0.76995,-0.34667 0.76995,-0.76995l0,-10.24876c0,-0.4252 -0.34667,-0.77187 -0.76995,-0.77187l-5.24025,0c-0.4252,0 -0.77187,0.34667 -0.77187,0.77187l0,10.24876c0,0.42328 0.34667,0.76995 0.77187,0.76995l0,0zm11.306,7.688c0.40604,2.05895 3.77697,0.1628 3.99915,-3.15641c0.06703,-1.01511 -0.03831,-2.19684 -0.2873,-3.51649l4.81697,0c2.0034,-0.07853 3.75207,-1.51309 2.5167,-3.86891c0.28155,-1.0266 0.32369,-2.23132 -0.44052,-2.70631c0.09576,-1.62034 -0.35242,-2.62396 -1.19132,-3.41689c-0.05555,-0.81017 -0.22792,-1.53032 -0.61864,-2.08384c-0.64737,-0.9136 -1.17216,-0.69525 -2.1911,-0.69525l-8.13427,0c-1.28899,0 -1.99191,0.35433 -2.83464,1.41158l0,9.06127c2.42477,0.65503 3.71376,3.97233 4.36496,6.15002l0,2.82123l0,0l0,0z" class="st0"/>
  </g>
 </g>
</svg>